<?xml version="1.0" standalone="no"?><!DOCTYPE svg PUBLIC "-//W3C//DTD SVG 1.1//EN" "http://www.w3.org/Graphics/SVG/1.1/DTD/svg11.dtd"><svg class="icon" height="512" viewBox="0 0 1024 1024" version="1.1" xmlns="http://www.w3.org/2000/svg"><path d="M346.941284733619 492.7698583619424s-4.713269549047572-4.713269549047572 0 0l-202.67061132165793-4.713269549047572s-4.713269549047572 0-4.713269549047572 4.713269549047572v37.70616053490304s0 4.713269549047572 4.713269549047572 4.713269549047572h202.67061132165793s4.713269549047572 0 4.713269549047572-4.713269549047572v-37.70616053490304z" fill="#333333" /><path d="M851.261174811138 855.6916495404666h-32.992889605014646c-4.713269549047572 0-4.713269549047572 0-4.713269549047572 4.713269549047572-4.713269549047572 47.13269963299818-42.41943008395062 89.5521297169488-94.26540064683721 89.5521297169488h-589.1587516262609c-51.845970562886585-4.713269549047572-94.26540064683721-47.13269963299818-94.26539926599636-98.97867019588476v-678.71088134321c0-51.845970562886585 37.70616053490304-98.97867019588476 94.26539926599636-98.97867019588476h589.1587516262609c51.845970562886585 4.713269549047572 94.26540064683721 47.13269963299818 94.26540064683721 98.97867019588476v150.82464075877135c0 4.713269549047572 0 4.713269549047572 4.713269549047572 4.713269549047572h32.992889605014646c4.713269549047572 0 4.713269549047572-4.713269549047572 4.713270929888394-4.713269549047572v-150.82464075877135c0-75.41231968896524-56.559240111934145-141.3981002798354-131.97156118174024-141.3981002798354h-589.1587502454203c-75.41231968896524 4.713269549047572-136.6848307307878 65.98578059087012-131.97156118174024 141.3981002798354v678.71088134321c0 75.41231968896524 56.559240111934145 141.3981002798354 131.97156118174024 141.3981002798354h589.1587502454203c70.6990501399177 0 131.97155980089943-61.27250966098173 131.97156118174024-131.97155980089943 0 0 0-4.713269549047572-4.713270929888394-4.713269549047572z" fill="#333333" /><path d="M667.4436444473521 313.665597547204v-37.70615915406222s0-4.713269549047572-4.713269549047572-4.713270929888394h-523.1729710353909s-4.713269549047572 0-4.713269549047572 4.713270929888394v37.70615915406222s0 4.713269549047572 4.713269549047572 4.713270929888394l527.8862405844385-4.713270929888394c0 4.713269549047572 0 4.713269549047572 0 0zM342.22801380373073 704.8670087816954h-202.67060994081712s-4.713269549047572 0-4.713269549047572 4.713269549047572v37.70616053490304s0 4.713269549047572 4.713269549047572 4.713269549047572h202.67060994081712s4.713269549047572 0 4.713270929888394-4.713269549047572l-4.713270929888394-42.41943008395062c4.713269549047572 0 0 0 0 0zM973.8061955139424 445.6371587289442c-28.279620055967072-28.279620055967072-65.98578059087012-42.41943008395062-108.40521067482072-42.41943008395062-56.559240111934145 0-103.69193974493233 23.5663505069195-136.684829349947 70.6990501399177l-4.713270929888394 4.713269549047572-4.713269549047572-4.713269549047572c-28.279620055967072-42.41943008395062-75.41231968896524-70.6990501399177-131.97155980089943-65.98578059087012-42.41943008395062 0-84.83886016790125 14.139810027983536-117.83175115375668 47.13269963299818s-47.13269963299818 80.12559061885366-42.41943008395062 127.25829025185185c0 98.97867019588476 65.98578059087012 136.6848307307878 131.97156118174024 174.3909912656909 4.713269549047572 4.713269549047572 9.426540478935967 4.713269549047572 14.139810027983536 9.426539098095144 4.713269549047572 4.713269549047572 9.426540478935967 4.713269549047572 14.139810027983536 9.426540478935967 51.845970562886585 32.992889605014646 94.26540064683721 70.6990501399177 127.25829025185185 117.83174977291587 0 4.713269549047572 4.713269549047572 4.713269549047572 9.426539098095144 0 37.70616053490304-47.13269963299818 80.12559061885366-84.83886016790125 127.25829025185185-117.83174977291587 4.713269549047572-4.713269549047572 14.139810027983536-9.426540478935967 18.853080957871935-14.139810027983536 4.713269549047572-4.713269549047572 14.139810027983536-9.426540478935967 18.85307957703111-14.139810027983536 61.27250966098173-37.70616053490304 122.54502070280427-80.12559061885366 127.25829025185185-174.39098988485006 9.426540478935967-47.13269963299818-9.426540478935967-94.26540064683721-42.41943008395062-127.25829025185185z m0 136.684829349947c-14.139810027983536 56.559240111934145-51.845970562886585 108.40521067482072-108.40521067482072 131.97156118174024-14.139810027983536 9.426540478935967-23.5663505069195 14.139810027983536-32.992889605014646 23.566349126078684l-4.713269549047572 4.713270929888394c-37.70616053490304 23.5663505069195-70.6990501399177 51.845970562886585-98.97867019588476 89.5521297169488l-4.713270929888394 9.426540478935967-4.713269549047572-9.426540478935967c-28.279620055967072-37.70616053490304-65.98578059087012-65.98578059087012-103.69193974493233-94.26540064683721-9.426540478935967-4.713269549047572-18.85307957703111-9.426540478935967-28.279620055967072-18.85307957703111l-4.713270929888394-4.713269549047572c-51.845970562886585-28.279620055967072-103.69193974493233-65.98578059087012-108.40520929397991-136.6848307307878-4.713269549047572-37.70616053490304 9.426540478935967-75.41231968896524 32.992889605014646-103.69193974493233 18.85307957703111-18.85307957703111 47.13269963299818-28.279620055967072 70.6990501399177-28.279620055967072 61.27250966098173 0 113.11848022386829 37.70616053490304 141.3981002798354 94.26539926599636l4.713269549047572 4.713270929888394c4.713269549047572 0 4.713269549047572 0 4.713270929888394-4.713270929888394 28.279620055967072-56.559240111934145 80.12559061885366-89.5521297169488 141.3981002798354-94.26539926599636 28.279620055967072 0 56.559240111934145 9.426540478935967 75.41231968896524 32.992889605014646 28.279620055967072 28.279620055967072 37.70616053490304 65.98578059087012 28.279620055967072 103.69193974493233z" fill="#333333" /></svg>